# xmcd
#
# Track frame offsets: 
#        150
#        13626
#        27517
#        40852
#        53915
#        67377
#        80354
#        94016
#        107468
#        121751
#        134732
#        149057
#        163007
#        177184
#        191447
#        203967
#        216687
#        230789
#        245224
#        257207
#        268457
#        282572
#        299156
#        310700
#
# Disc length: 4304 seconds
#
# Revision: 1
# Processed by: cddbd v1.5.2PL0 Copyright (c) Steve Scherf et al.
# Submitted via: ExactAudioCopyFreeDBPlugin 1.0
#
DISCID=8f10ce18
DTITLE=Various Artist - Texas Hillbillies 1922-1937 CD D
DYEAR=2018
DGENRE=Texas Hillbiilly
TTITLE0=Hugh Roden and Roy Rodgers - Chicken in the Garden 
TTITLE1=Prince Albert Hunt's Texas Ramblers - Houston Slide 
TTITLE2=Smith's Garage Fiddle Band - Tom and Jerry  
TTITLE3=Eck Robertson and Family - There's a Brown Skin Girl down the Ro
TTITLE3=ad Somewhere 
TTITLE4=Oscar and Doc Harper - Twinkle Little Star 
TTITLE5=Oscar and Doc Harper - Bitter Creek 
TTITLE6=Solomon and Hughes - Ragtime Annie  
TTITLE7=Solomon and Hughes - Sally Johnson  
TTITLE8=Capt MJ Bonner - Yearling's in the Canebrake and The Gal on the 
TTITLE8=Log 
TTITLE9=Capt MJ Bonner - Dusty Miller and Ma Ferguson 
TTITLE10=Oscar Harper's Texas String Band - Kelly Waltz 
TTITLE11=Oscar Harper's Texas String Band - Bouquet Waltz  
TTITLE12=East Texas Serenaders - Ozark Rag 
TTITLE13=East Texas Serenaders - Louisa Waltz 
TTITLE14=Eck Robertson and Dr JB Cranfill - Great Big 'Taters 
TTITLE15=Eck Robertson and Dr JB Cranfill - Run, Boy, Run  
TTITLE16=The Fox Chasers - Red Wing 
TTITLE17=The Fox Chasers - New Broom 
TTITLE18=Red Headed Fiddlers - St Jobe's Waltz  
TTITLE19=Red Headed Fiddlers - Fatal Wedding  
TTITLE20=Cartwright Brothers - Mammy's Little Black-eyed Boy 
TTITLE21=Cartwright Brothers - Pickanniny Lullaby  
TTITLE22=East Texas Serenaders - Beaumont Rag  
TTITLE23=East Texas Serenaders - Serenaders' Waltz  
EXTD=
EXTT0=
EXTT1=
EXTT2=
EXTT3=
EXTT4=
EXTT5=
EXTT6=
EXTT7=
EXTT8=
EXTT9=
EXTT10=
EXTT11=
EXTT12=
EXTT13=
EXTT14=
EXTT15=
EXTT16=
EXTT17=
EXTT18=
EXTT19=
EXTT20=
EXTT21=
EXTT22=
EXTT23=
PLAYORDER=
